<svg width="15" height="15" viewBox="0 0 15 15" fill="none" xmlns="http://www.w3.org/2000/svg">
<path d="M6.53995 0.727591C6.8426 -0.24253 8.15714 -0.24253 8.45879 0.727591L9.53826 4.19517C9.60421 4.40635 9.73241 4.59036 9.90454 4.7209C10.0767 4.85143 10.2839 4.92181 10.4967 4.92197H13.9893C14.9669 4.92197 15.3724 6.22811 14.5825 6.82851L11.7577 8.97099C11.5852 9.10164 11.4568 9.28595 11.3908 9.49751C11.3249 9.70906 11.3248 9.93699 11.3905 10.1486L12.47 13.6162C12.7726 14.5863 11.7083 15.3942 10.9163 14.7938L8.09156 12.6513C7.91926 12.5207 7.71179 12.4504 7.49886 12.4504C7.28594 12.4504 7.07847 12.5207 6.90616 12.6513L4.08138 14.7938C3.29044 15.3942 2.22711 14.5863 2.52875 13.6162L3.60823 10.1486C3.67398 9.93699 3.67386 9.70906 3.60789 9.49751C3.54192 9.28595 3.41349 9.10164 3.241 8.97099L0.417229 6.82956C-0.372702 6.22916 0.0338651 4.92303 1.01043 4.92303H4.50207C4.71498 4.92308 4.92246 4.85281 5.09479 4.72226C5.26713 4.59171 5.39548 4.40758 5.46149 4.19622L6.54096 0.728645L6.53995 0.727591Z" fill="#06707D"/>
</svg>
